<svg id="jobmap" width="300" height="250" style="fill: none; font-size: 10px; font-family: sans-serif;" xmlns="http://www.w3.org/2000/svg" xmlns:xlink="http://www.w3.org/1999/xlink">

                    <defs id="defsmain"><pattern id="userpic" width="100%" height="100%" patternContentUnits="objectBoundingBox"><image height="1" width="1" preserveAspectRatio="none" xmlns:xlink="http://www.w3.org/1999/xlink" xlink:href="src/images/u.png"/></pattern><marker id="arrow" markerWidth="10" markerHeight="10" refX="0" refY="3" orient="auto" markerUnits="strokeWidth"><path d="M0,0 L0,6 L9,3 z" style="fill: black;"/></marker></defs><rect class="pantarget" opacity="0" width="1336" height="762"/><g class="pannel" transform="translate(50,50)"><text class="Time" text-anchor="middle" x="40" dy="-30" style="font-weight: bold; fill: black;">Time</text><line x1="60" x2="95" y1="-33" y2="-33" marker-end="url(#arrow)" style="stroke: black;"/><text class="Time" text-anchor="middle" x="-5" dy="-1rem" style="font-weight: bold; fill: black;">Instance</text><line x1="5" x2="5" y1="-5" y2="30" marker-end="url(#arrow)" style="stroke: black;"/><g class="gNodeaxis" transform="translate(210,-10)"><g class="gMainaxis" fill="none" font-size="10" font-family="sans-serif" text-anchor="middle"><g class="tick" opacity="1" transform="translate(-180, 0)"><line stroke="#000" y2="145" vector-effect="non-scaling-stroke" style="stroke-width: 0.1; stroke: black; stroke-dasharray: 1, 2; opacity: 0.5;"/><text fill="#000" y="-3" dy="-0.5rem">1</text></g><g class="tick" opacity="1" transform="translate(-160, 0)"><line stroke="#000" y2="145" vector-effect="non-scaling-stroke" style="stroke-width: 0.1; stroke: black; stroke-dasharray: 1, 2; opacity: 0.5;"/><text fill="#000" y="-3" dy="-0.5rem">2</text></g><g class="tick" opacity="1" transform="translate(-140, 0)"><line stroke="#000" y2="145" vector-effect="non-scaling-stroke" style="stroke-width: 0.1; stroke: black; stroke-dasharray: 1, 2; opacity: 0.5;"/><text fill="#000" y="-3" dy="-0.5rem">3</text></g><g class="tick" opacity="1" transform="translate(-120, 0)"><line stroke="#000" y2="145" vector-effect="non-scaling-stroke" style="stroke-width: 0.1; stroke: black; stroke-dasharray: 1, 2; opacity: 0.5;"/><text fill="#000" y="-3" dy="-0.5rem">4</text></g><g class="tick" opacity="1" transform="translate(-100, 0)"><line stroke="#000" y2="145" vector-effect="non-scaling-stroke" style="stroke-width: 0.1; stroke: black; stroke-dasharray: 1, 2; opacity: 0.5;"/><text fill="#000" y="-3" dy="-0.5rem">5</text></g><g class="tick" opacity="1" transform="translate(-80, 0)"><line stroke="#000" y2="145" vector-effect="non-scaling-stroke" style="stroke-width: 0.1; stroke: black; stroke-dasharray: 1, 2; opacity: 0.5;"/><text fill="#000" y="-3" dy="-0.5rem">6</text></g><g class="tick" opacity="1" transform="translate(-60, 0)"><line stroke="#000" y2="145" vector-effect="non-scaling-stroke" style="stroke-width: 0.1; stroke: black; stroke-dasharray: 1, 2; opacity: 0.5;"/><text fill="#000" y="-3" dy="-0.5rem">7</text></g><g class="tick" opacity="1" transform="translate(-40, 0)"><line stroke="#000" y2="145" vector-effect="non-scaling-stroke" style="stroke-width: 0.1; stroke: black; stroke-dasharray: 1, 2; opacity: 0.5;"/><text fill="#000" y="-3" dy="-0.5rem">8</text></g><g class="tick" opacity="1" transform="translate(-20, 0)"><line stroke="#000" y2="145" vector-effect="non-scaling-stroke" style="stroke-width: 0.1; stroke: black; stroke-dasharray: 1, 2; opacity: 0.5;"/><text fill="#000" y="-3" dy="-0.5rem">9</text></g><g class="tick" opacity="1" transform=""><line stroke="#000" y2="145" vector-effect="non-scaling-stroke" style="stroke-width: 0.1; stroke: black; stroke-dasharray: 1, 2; opacity: 0.5;"/><text fill="#000" y="-3" dy="-0.5rem">10</text></g></g><g class="gSubaxis hide"/></g><g class="annotation"/><g class="linkg"><g class="links" style="display: none;"><path stroke="black" style="stroke-width: 2;"/><text text-anchor="middle">1</text></g><g class="links" style="display: none;"><path stroke="black" style="stroke-width: 2;"/><text text-anchor="middle">1</text></g><g class="links" style="display: none;"><path stroke="black" style="stroke-width: 2;"/><text text-anchor="middle">1</text></g><g class="links" style="display: none;"><path stroke="black" style="stroke-width: 2;"/><text text-anchor="middle">1</text></g><g class="links" style="display: none;"><path stroke="black" style="stroke-width: 2;"/><text text-anchor="middle">1</text></g><g class="links" style="display: none;"><path stroke="black" style="stroke-width: 2;"/><text text-anchor="middle">1</text></g><g class="links" style="display: none;"><path stroke="black" style="stroke-width: 2;"/><text text-anchor="middle">1</text></g><g class="links" style="display: none;"><path stroke="black" style="stroke-width: 2;"/><text text-anchor="middle">1</text></g><g class="links" style="display: none;"><path stroke="black" style="stroke-width: 2;"/><text text-anchor="middle">1</text></g><g class="links" style="display: none;"><path stroke="black" style="stroke-width: 2;"/><text text-anchor="middle">1</text></g><g class="links" style="display: none;"><path stroke="black" style="stroke-width: 2;"/><text text-anchor="middle">1</text></g></g><g class="nodeg"><g class="node computeNode h1 statics" transform="translate(210,0)" style="pointer-events: auto;"><g class="computeSig" stroke="black" style="stroke-width: 2;"><path class="linegg timeline hgroup_1" d="M-180,135C-173.33333333333334,135,-166.66666666666666,135,-160,135C-153.33333333333334,135,-146.66666666666666,135,-140,135C-133.33333333333334,135,-126.66666666666667,135,-120,135C-113.33333333333333,135,-106.66666666666667,135,-100,135C-93.33333333333333,135,-86.66666666666667,135,-80,135C-73.33333333333333,135,-66.66666666666667,135,-60,135C-53.333333333333336,135,-46.666666666666664,135,-40,135C-36.666666666666664,135,-33.333333333333336,135,-30,135C-26.666666666666668,135,-23.333333333333332,121.0344827586207,-20,107.06896551724138" style="stroke: rgb(31, 119, 180); stroke-width: 2; fill: none;"/><path class="linegg timeline hgroup_3" d="M-20,107.06896551724138L0,107.06896551724138" style="stroke: rgb(44, 160, 44); stroke-width: 2; fill: none;"/></g><text class="computeSig_label label" text-anchor="end" dx="-5" dy="0.5rem" fill="black" width="200" transform="translate(-180,135)">1</text></g><g class="node computeNode h2 statics" transform="translate(210,0)" style="pointer-events: auto;"><g class="computeSig" stroke="black" style="stroke-width: 2;"><path class="linegg timeline hgroup_2" d="M-180,13.96551724137931C-176.66666666666666,13.96551724137931,-173.33333333333334,13.96551724137931,-170,13.96551724137931C-166.66666666666666,13.96551724137931,-163.33333333333334,53.5344827586207,-160,93.10344827586208" style="stroke: rgb(255, 127, 14); stroke-width: 2;"/><path class="linegg timeline hgroup_3" d="M-160,93.10344827586208C-153.33333333333334,93.10344827586208,-146.66666666666666,93.10344827586208,-140,93.10344827586208C-133.33333333333334,93.10344827586208,-126.66666666666667,93.10344827586208,-120,93.10344827586208C-113.33333333333333,93.10344827586208,-106.66666666666667,93.10344827586208,-100,93.10344827586208C-93.33333333333333,93.10344827586208,-86.66666666666667,93.10344827586208,-80,93.10344827586208C-73.33333333333333,93.10344827586208,-66.66666666666667,93.10344827586208,-60,93.10344827586208C-53.333333333333336,93.10344827586208,-46.666666666666664,93.10344827586208,-40,93.10344827586208C-33.333333333333336,93.10344827586208,-26.666666666666668,93.10344827586208,-20,93.10344827586208C-13.333333333333332,93.10344827586208,-6.666666666666667,93.10344827586208,0,93.10344827586208" style="stroke: rgb(44, 160, 44); stroke-width: 2; fill: none;"/></g><text class="computeSig_label label" text-anchor="end" dx="-5" dy="0.5rem" fill="black" width="200" transform="translate(-180,13.96551724137931)">2</text></g><g class="node computeNode h3 statics" transform="translate(210,0)" style="pointer-events: auto;"><g class="computeSig" stroke="black" style="stroke-width: 2;"><path class="linegg timeline hgroup_3" d="M-180,97.75862068965517C-173.33333333333334,97.75862068965517,-166.66666666666666,97.75862068965517,-160,97.75862068965517C-153.33333333333334,97.75862068965517,-146.66666666666666,97.75862068965517,-140,97.75862068965517C-133.33333333333334,97.75862068965517,-126.66666666666667,97.75862068965517,-120,97.75862068965517C-113.33333333333333,97.75862068965517,-106.66666666666667,97.75862068965517,-100,97.75862068965517C-96.66666666666667,97.75862068965517,-93.33333333333333,97.75862068965517,-90,97.75862068965517C-86.66666666666667,97.75862068965517,-83.33333333333333,111.72413793103448,-80,125.6896551724138" style="stroke: rgb(44, 160, 44); stroke-width: 2; fill: none;"/><path class="linegg timeline hgroup_1" d="M-80,125.6896551724138C-73.33333333333333,125.6896551724138,-66.66666666666667,125.6896551724138,-60,125.6896551724138C-56.666666666666664,125.6896551724138,-53.333333333333336,125.6896551724138,-50,125.6896551724138C-46.666666666666664,125.6896551724138,-43.333333333333336,97.75862068965517,-40,69.82758620689656" style="stroke: rgb(31, 119, 180); stroke-width: 2; fill: none;"/><path class="linegg timeline hgroup_5" d="M-40,69.82758620689656C-33.333333333333336,69.82758620689656,-26.666666666666668,69.82758620689656,-20,69.82758620689656C-13.333333333333332,69.82758620689656,-6.666666666666667,69.82758620689656,0,69.82758620689656" style="stroke: rgb(148, 103, 189); stroke-width: 2; fill: none;"/></g><text class="computeSig_label label" text-anchor="end" dx="-5" dy="0.5rem" fill="black" width="200" transform="translate(-180,97.75862068965517)">3</text></g><g class="node computeNode h4 statics" transform="translate(210,0)" style="pointer-events: auto;"><g class="computeSig" stroke="black" style="stroke-width: 2;"><path class="linegg timeline hgroup_3" d="M-180,102.41379310344827C-173.33333333333334,102.41379310344827,-166.66666666666666,102.41379310344827,-160,102.41379310344827C-153.33333333333334,102.41379310344827,-146.66666666666666,102.41379310344827,-140,102.41379310344827C-133.33333333333334,102.41379310344827,-126.66666666666667,102.41379310344827,-120,102.41379310344827C-113.33333333333333,102.41379310344827,-106.66666666666667,102.41379310344827,-100,102.41379310344827C-93.33333333333333,102.41379310344827,-86.66666666666667,102.41379310344827,-80,102.41379310344827C-76.66666666666667,102.41379310344827,-73.33333333333333,102.41379310344827,-70,102.41379310344827C-66.66666666666667,102.41379310344827,-63.333333333333336,88.44827586206895,-60,74.48275862068965" style="stroke: rgb(44, 160, 44); stroke-width: 2; fill: none;"/><path class="linegg timeline hgroup_5" d="M-60,74.48275862068965C-56.666666666666664,74.48275862068965,-53.333333333333336,74.48275862068965,-50,74.48275862068965C-46.666666666666664,74.48275862068965,-43.333333333333336,102.41379310344827,-40,130.3448275862069" style="stroke: rgb(148, 103, 189); stroke-width: 2;"/><path class="linegg timeline hgroup_1" d="M-40,130.3448275862069C-33.333333333333336,130.3448275862069,-26.666666666666668,130.3448275862069,-20,130.3448275862069C-13.333333333333332,130.3448275862069,-6.666666666666667,130.3448275862069,0,130.3448275862069" style="stroke: rgb(31, 119, 180); stroke-width: 2; fill: none;"/></g><text class="computeSig_label label" text-anchor="end" dx="-5" dy="0.5rem" fill="black" width="200" transform="translate(-180,102.41379310344827)">4</text></g><g class="node computeNode h5 statics" transform="translate(210,0)" style="pointer-events: auto;"><g class="computeSig" stroke="black" style="stroke-width: 2;"><path class="linegg timeline hgroup_4" d="M-180,27.93103448275862C-173.33333333333334,27.93103448275862,-166.66666666666666,27.93103448275862,-160,27.93103448275862C-153.33333333333334,27.93103448275862,-146.66666666666666,27.93103448275862,-140,27.93103448275862C-133.33333333333334,27.93103448275862,-126.66666666666667,27.93103448275862,-120,27.93103448275862C-113.33333333333333,27.93103448275862,-106.66666666666667,27.93103448275862,-100,27.93103448275862C-93.33333333333333,27.93103448275862,-86.66666666666667,27.93103448275862,-80,27.93103448275862C-76.66666666666667,27.93103448275862,-73.33333333333333,27.93103448275862,-70,27.93103448275862C-66.66666666666667,27.93103448275862,-63.333333333333336,41.89655172413793,-60,55.86206896551724" style="stroke: rgb(214, 39, 40); stroke-width: 2; fill: none;"/><path class="linegg timeline hgroup_5" d="M-60,55.86206896551724C-53.333333333333336,55.86206896551724,-46.666666666666664,55.86206896551724,-40,55.86206896551724C-33.333333333333336,55.86206896551724,-26.666666666666668,55.86206896551724,-20,55.86206896551724C-13.333333333333332,55.86206896551724,-6.666666666666667,55.86206896551724,0,55.86206896551724" style="stroke: rgb(148, 103, 189); stroke-width: 2; fill: none;"/></g><text class="computeSig_label label" text-anchor="end" dx="-5" dy="0.5rem" fill="black" width="200" transform="translate(-180,27.93103448275862)">5</text></g><g class="node computeNode h6 statics" transform="translate(210,0)" style="pointer-events: auto;"><g class="computeSig" stroke="black" style="stroke-width: 2;"><path class="linegg timeline hgroup_4" d="M-180,46.55172413793104C-173.33333333333334,46.55172413793104,-166.66666666666666,46.55172413793104,-160,46.55172413793104C-153.33333333333334,46.55172413793104,-146.66666666666666,46.55172413793104,-140,46.55172413793104C-133.33333333333334,46.55172413793104,-126.66666666666667,46.55172413793104,-120,46.55172413793104C-116.66666666666667,46.55172413793104,-113.33333333333333,46.55172413793104,-110,46.55172413793104C-106.66666666666667,46.55172413793104,-103.33333333333333,67.5,-100,88.44827586206897" style="stroke: rgb(214, 39, 40); stroke-width: 2; fill: none;"/><path class="linegg timeline hgroup_3" d="M-100,88.44827586206897C-93.33333333333333,88.44827586206897,-86.66666666666667,88.44827586206897,-80,88.44827586206897C-73.33333333333333,88.44827586206897,-66.66666666666667,88.44827586206897,-60,88.44827586206897C-53.333333333333336,88.44827586206897,-46.666666666666664,88.44827586206897,-40,88.44827586206897C-33.333333333333336,88.44827586206897,-26.666666666666668,88.44827586206897,-20,88.44827586206897C-13.333333333333332,88.44827586206897,-6.666666666666667,88.44827586206897,0,88.44827586206897" style="stroke: rgb(44, 160, 44); stroke-width: 2; fill: none;"/></g><text class="computeSig_label label" text-anchor="end" dx="-5" dy="0.5rem" fill="black" width="200" transform="translate(-180,46.55172413793104)">6</text></g><g class="node computeNode h7 statics" transform="translate(210,0)" style="pointer-events: auto;"><g class="computeSig" stroke="black" style="stroke-width: 2;"><path class="linegg timeline hgroup_5" d="M-180,60.51724137931035C-176.66666666666666,60.51724137931035,-173.33333333333334,60.51724137931035,-170,60.51724137931035C-166.66666666666666,60.51724137931035,-163.33333333333334,48.87931034482759,-160,37.241379310344826" style="stroke: rgb(148, 103, 189); stroke-width: 2;"/><path class="linegg timeline hgroup_4" d="M-160,37.241379310344826C-153.33333333333334,37.241379310344826,-146.66666666666666,37.241379310344826,-140,37.241379310344826C-133.33333333333334,37.241379310344826,-126.66666666666667,37.241379310344826,-120,37.241379310344826C-116.66666666666667,37.241379310344826,-113.33333333333333,37.241379310344826,-110,37.241379310344826C-106.66666666666667,37.241379310344826,-103.33333333333333,48.87931034482759,-100,60.51724137931035" style="stroke: rgb(214, 39, 40); stroke-width: 2; fill: none;"/><path class="linegg timeline hgroup_5" d="M-100,60.51724137931035C-93.33333333333333,60.51724137931035,-86.66666666666667,60.51724137931035,-80,60.51724137931035C-73.33333333333333,60.51724137931035,-66.66666666666667,60.51724137931035,-60,60.51724137931035C-53.333333333333336,60.51724137931035,-46.666666666666664,60.51724137931035,-40,60.51724137931035C-33.333333333333336,60.51724137931035,-26.666666666666668,60.51724137931035,-20,60.51724137931035C-13.333333333333332,60.51724137931035,-6.666666666666667,60.51724137931035,0,60.51724137931035" style="stroke: rgb(148, 103, 189); stroke-width: 2; fill: none;"/></g><text class="computeSig_label label" text-anchor="end" dx="-5" dy="0.5rem" fill="black" width="200" transform="translate(-180,60.51724137931035)">7</text></g><g class="node computeNode h8 statics" transform="translate(210,0)" style="pointer-events: auto;"><g class="computeSig" stroke="black" style="stroke-width: 2;"><path class="linegg timeline hgroup_1" d="M-180,116.37931034482757C-173.33333333333334,116.37931034482757,-166.66666666666666,116.37931034482757,-160,116.37931034482757C-156.66666666666666,116.37931034482757,-153.33333333333334,116.37931034482757,-150,116.37931034482757C-146.66666666666666,116.37931034482757,-143.33333333333334,60.51724137931034,-140,4.655172413793103" style="stroke: rgb(31, 119, 180); stroke-width: 2; fill: none;"/><path class="linegg timeline hgroup_2" d="M-140,4.65517241379311C-133.33333333333334,4.65517241379311,-126.66666666666667,4.655172413793103,-120,4.655172413793103C-116.66666666666667,4.655172413793103,-113.33333333333333,4.655172413793103,-110,4.655172413793103C-106.66666666666667,4.655172413793103,-103.33333333333333,18.620689655172413,-100,32.58620689655172" style="stroke: rgb(255, 127, 14); stroke-width: 2; fill: none;"/><path class="linegg timeline hgroup_4" d="M-100,32.586206896551715C-93.33333333333333,32.586206896551715,-86.66666666666667,32.586206896551715,-80,32.586206896551715C-73.33333333333333,32.586206896551715,-66.66666666666667,32.586206896551715,-60,32.586206896551715C-53.333333333333336,32.586206896551715,-46.666666666666664,32.586206896551715,-40,32.586206896551715C-33.333333333333336,32.586206896551715,-26.666666666666668,32.586206896551715,-20,32.586206896551715C-13.333333333333332,32.586206896551715,-6.666666666666667,32.586206896551715,0,32.586206896551715" style="stroke: rgb(214, 39, 40); stroke-width: 2; fill: none;"/></g><text class="computeSig_label label" text-anchor="end" dx="-5" dy="0.5rem" fill="black" width="200" transform="translate(-180,116.37931034482757)">8</text></g><g class="node computeNode h9 statics" transform="translate(210,0)" style="pointer-events: auto;"><g class="computeSig" stroke="black" style="stroke-width: 2;"><path class="linegg timeline hgroup_1" d="M-180,121.0344827586207C-173.33333333333334,121.0344827586207,-166.66666666666666,121.0344827586207,-160,121.0344827586207C-156.66666666666666,121.0344827586207,-153.33333333333334,121.0344827586207,-150,121.0344827586207C-146.66666666666666,121.0344827586207,-143.33333333333334,65.17241379310346,-140,9.310344827586206" style="stroke: rgb(31, 119, 180); stroke-width: 2; fill: none;"/><path class="linegg timeline hgroup_2" d="M-140,9.310344827586206C-136.66666666666666,9.310344827586206,-133.33333333333334,9.310344827586206,-130,9.310344827586206C-126.66666666666667,9.310344827586206,-123.33333333333333,25.603448275862064,-120,41.89655172413793" style="stroke: rgb(255, 127, 14); stroke-width: 2;"/><path class="linegg timeline hgroup_4" d="M-120,41.896551724137936C-113.33333333333333,41.896551724137936,-106.66666666666667,41.89655172413793,-100,41.89655172413793C-96.66666666666667,41.89655172413793,-93.33333333333333,41.89655172413793,-90,41.89655172413793C-86.66666666666667,41.89655172413793,-83.33333333333333,62.84482758620689,-80,83.79310344827586" style="stroke: rgb(214, 39, 40); stroke-width: 2; fill: none;"/><path class="linegg timeline hgroup_3" d="M-80,83.79310344827586C-73.33333333333333,83.79310344827586,-66.66666666666667,83.79310344827586,-60,83.79310344827586C-56.666666666666664,83.79310344827586,-53.333333333333336,83.79310344827586,-50,83.79310344827586C-46.666666666666664,83.79310344827586,-43.333333333333336,74.48275862068965,-40,65.17241379310344" style="stroke: rgb(44, 160, 44); stroke-width: 2; fill: none;"/><path class="linegg timeline hgroup_5" d="M-40,65.17241379310344C-36.666666666666664,65.17241379310344,-33.333333333333336,65.17241379310344,-30,65.17241379310344C-26.666666666666668,65.17241379310344,-23.333333333333332,37.241379310344826,-20,9.310344827586206" style="stroke: rgb(148, 103, 189); stroke-width: 2;"/><path class="linegg timeline hgroup_2" d="M-20,9.310344827586206L0,9.310344827586206" style="stroke: rgb(255, 127, 14); stroke-width: 2; fill: none;"/></g><text class="computeSig_label label" text-anchor="end" dx="-5" dy="0.5rem" fill="black" width="200" transform="translate(-180,121.0344827586207)">9</text></g><g class="node computeNode h10 statics" transform="translate(210,0)" style="pointer-events: auto;"><g class="computeSig" stroke="black" style="stroke-width: 2;"><path class="linegg timeline hgroup_4" d="M-180,23.275862068965523C-173.33333333333334,23.275862068965523,-166.66666666666666,23.275862068965523,-160,23.275862068965523C-153.33333333333334,23.275862068965523,-146.66666666666666,23.275862068965523,-140,23.275862068965523C-133.33333333333334,23.275862068965523,-126.66666666666667,23.275862068965523,-120,23.275862068965523C-113.33333333333333,23.275862068965523,-106.66666666666667,23.275862068965523,-100,23.275862068965523C-93.33333333333333,23.275862068965523,-86.66666666666667,23.275862068965523,-80,23.275862068965523C-73.33333333333333,23.275862068965523,-66.66666666666667,23.275862068965523,-60,23.275862068965523C-53.333333333333336,23.275862068965523,-46.666666666666664,23.275862068965523,-40,23.275862068965523C-33.333333333333336,23.275862068965523,-26.666666666666668,23.275862068965523,-20,23.275862068965523C-13.333333333333332,23.275862068965523,-6.666666666666667,23.275862068965523,0,23.275862068965523" style="stroke: rgb(214, 39, 40); stroke-width: 2; fill: none;"/></g><text class="computeSig_label label" text-anchor="end" dx="-5" dy="0.5rem" fill="black" width="200" transform="translate(-180,23.27586206896552)">10</text></g></g><rect class="fisheyeLayer" style="opacity: 0; pointer-events: none;" width="180" height="180" transform="translate(120,0)"/><g class="table header" transform="translate(600,0)"><g class="back"><path style="fill: rgb(221, 221, 221);"/></g></g></g><g class="timebox hide" transform="translate(40,20)" dy="1rem" style="font-size: 16px;"/><circle id="tipfollowscursor"/></svg>